<svg version="1" xmlns="http://www.w3.org/2000/svg" width="21.333" height="21.333" viewBox="0 0 16.000000 16.000000"><path d="M1.83.17C1.28.28 1.3.04 1.3 8.01c0 7.11.01 7.38.19 7.6l.19.24h6.3c6.05 0 6.31-.01 6.51-.19.21-.19.21-.19.21-7.66s0-7.47-.21-7.66c-.2-.18-.46-.19-6.33-.2C4.8.13 1.95.14 1.83.17zm12.3.48C14.08.81 1.98.79 1.92.62c-.03-.1 1.2-.12 6.1-.1 4.02.02 6.12.06 6.11.13zm-3.51 1.02c-1.44.02-3.8.02-5.25 0-1.44-.01-.26-.02 2.63-.02 2.89 0 4.07.01 2.62.02zm-.42.73c0 .06-.8.1-2.2.1-1.4 0-2.2-.04-2.2-.1 0-.06.8-.1 2.2-.1 1.4 0 2.2.04 2.2.1zm-.76.36l.46.07V4.2H6.1V2.81l.38-.04c.66-.07 2.48-.07 2.96-.01zM9.6 6c.14.05-.53.08-1.6.08S6.26 6.05 6.4 6c.14-.04.86-.08 1.6-.08.74 0 1.46.04 1.6.08zm1.08 2.77c-1.41.02-3.75.02-5.2 0-1.45-.01-.29-.02 2.57-.02s4.04.01 2.63.02zm-.48.8c0 .05-.66.07-1.47.05-2.73-.04-2.99-.08-.75-.1 1.22-.01 2.22.01 2.22.05zm-.32 1.1l.03.73H6.1v-.68c0-.38.03-.72.07-.76.04-.03.88-.05 1.87-.04l1.81.03.03.72zm-.13 2.53c-.04.06-.73.1-1.76.1-1.06 0-1.69-.04-1.69-.1 0-.06.65-.1 1.76-.1 1.14 0 1.73.03 1.69.1z"/></svg>