<?xml version="1.0" standalone="no"?>
<!DOCTYPE svg PUBLIC "-//W3C//DTD SVG 20010904//EN"
 "http://www.w3.org/TR/2001/REC-SVG-20010904/DTD/svg10.dtd">
<svg version="1.0" xmlns="http://www.w3.org/2000/svg"
 width="16.000000pt" height="16.000000pt" viewBox="0 0 16.000000 16.000000"
 preserveAspectRatio="xMidYMid meet">
<metadata>
Created by potrace 1.11, written by Peter Selinger 2001-2013
</metadata>
<g transform="translate(0.000000,16.000000) scale(0.010000,-0.010000)"
fill="#000000" stroke="none">
<path d="M183 1583 c-55 -11 -53 13 -53 -784 0 -711 1 -738 19 -760 l19 -24
630 0 c605 0 631 1 651 19 21 19 21 19 21 766 0 747 0 747 -21 766 -20 18 -46
19 -633 20 -336 1 -621 0 -633 -3z m1230 -48 c-5 -16 -1215 -14 -1221 3 -3 10
120 12 610 10 402 -2 612 -6 611 -13z m-351 -102 c-144 -2 -380 -2 -525 0
-144 1 -26 2 263 2 289 0 407 -1 262 -2z m-42 -73 c0 -6 -80 -10 -220 -10
-140 0 -220 4 -220 10 0 6 80 10 220 10 140 0 220 -4 220 -10z m-76 -36 l46
-7 0 -68 0 -69 -190 0 -190 0 0 69 0 70 38 4 c66 7 248 7 296 1z m16 -324 c14
-5 -53 -8 -160 -8 -107 0 -174 3 -160 8 14 4 86 8 160 8 74 0 146 -4 160 -8z
m108 -277 c-141 -2 -375 -2 -520 0 -145 1 -29 2 257 2 286 0 404 -1 263 -2z
m-48 -80 c0 -5 -66 -7 -147 -5 -273 4 -299 8 -75 10 122 1 222 -1 222 -5z
m-32 -110 l3 -73 -191 0 -190 0 0 68 c0 38 3 72 7 76 4 3 88 5 187 4 l181 -3
3 -72z m-13 -253 c-4 -6 -73 -10 -176 -10 -106 0 -169 4 -169 10 0 6 65 10
176 10 114 0 173 -3 169 -10z"/>
</g>
</svg>
